# xmcd
#
# Track frame offsets:
#	150
#	17538
#	29549
#	41508
#	59213
#	83816
#	107151
#	120726
#	138878
#	149486
#	166565
#	174309
#	189628
#	206217
#
# Disc length: 2934 seconds
# Revision: 2
# Processed by: cddbd v1.5.2PL0 Copyright (c) Steve Scherf et al.
# Submitted via: dBpowerAMP V12.0
#
DISCID=c40b740e
DTITLE=Freud Marx Engels and Jung - Siunattu Hulluus
DYEAR=1987
DGENRE=Country
TTITLE0=Drai and Vodkaa
TTITLE1=Viski and Naiset
TTITLE2=Rakkauden Kirkas Valo
TTITLE3=Elama on Aika Tulsaa
TTITLE4=Sunnuntaiaamun Kadut
TTITLE5=Nälkäinen Koira
TTITLE6=Jotkut Päivät on Kultaa
TTITLE7=Töölööseen
TTITLE8=Ei Ei Laulu
TTITLE9=Maria Doloresin Häävalssi
TTITLE10=Asseri
TTITLE11=Mihin Sotkuun Jouduinkaan
TTITLE12=Aknepoppin
TTITLE13=Pillerit
EXTD=
EXTT0=
EXTT1=
EXTT2=
EXTT3=
EXTT4=
EXTT5=
EXTT6=
EXTT7=
EXTT8=
EXTT9=
EXTT10=
EXTT11=
EXTT12=
EXTT13=
PLAYORDER=
